<?xml version="1.0" encoding="UTF-8" standalone="no"?>
<svg
   xmlns:dc="http://purl.org/dc/elements/1.1/"
   xmlns:cc="http://creativecommons.org/ns#"
   xmlns:rdf="http://www.w3.org/1999/02/22-rdf-syntax-ns#"
   xmlns:svg="http://www.w3.org/2000/svg"
   xmlns="http://www.w3.org/2000/svg"
   xmlns:sodipodi="http://sodipodi.sourceforge.net/DTD/sodipodi-0.dtd"
   xmlns:inkscape="http://www.inkscape.org/namespaces/inkscape"
   width="8.1116199in"
   height="3.757443in"
   viewBox="0 0 584.03657 270.53624"
   id="svg2"
   version="1.1"
   inkscape:version="0.92.3 (2405546, 2018-03-11)"
   sodipodi:docname="path.svg"
   inkscape:export-filename="C:\Users\mauri\Desktop\path.png"
   inkscape:export-xdpi="81.438354"
   inkscape:export-ydpi="81.438354">
  <metadata
     id="metadata9">
    <rdf:RDF>
      <cc:Work
         rdf:about="">
        <dc:format>image/svg+xml</dc:format>
        <dc:type
           rdf:resource="http://purl.org/dc/dcmitype/StillImage" />
        <dc:title />
      </cc:Work>
    </rdf:RDF>
  </metadata>
  <defs
     id="defs7" />
  <sodipodi:namedview
     pagecolor="#ffffff"
     bordercolor="#666666"
     borderopacity="1"
     objecttolerance="10"
     gridtolerance="10"
     guidetolerance="10"
     inkscape:pageopacity="0"
     inkscape:pageshadow="2"
     inkscape:window-width="1920"
     inkscape:window-height="1027"
     id="namedview5"
     showgrid="false"
     inkscape:zoom="1"
     inkscape:cx="164.56798"
     inkscape:cy="254.62675"
     inkscape:window-x="1912"
     inkscape:window-y="-8"
     inkscape:window-maximized="1"
     inkscape:current-layer="svg2"
     inkscape:object-paths="true"
     inkscape:snap-intersection-paths="true"
     inkscape:object-nodes="true"
     inkscape:snap-smooth-nodes="true"
     inkscape:snap-global="true"
     showguides="false" />
  <path
     style="color:#000000;font-style:normal;font-variant:normal;font-weight:normal;font-stretch:normal;font-size:medium;line-height:normal;font-family:sans-serif;text-indent:0;text-align:start;text-decoration:none;text-decoration-line:none;text-decoration-style:solid;text-decoration-color:#000000;letter-spacing:normal;word-spacing:normal;text-transform:none;writing-mode:lr-tb;direction:ltr;baseline-shift:baseline;text-anchor:start;white-space:normal;clip-rule:nonzero;display:inline;overflow:visible;visibility:visible;opacity:1;isolation:auto;mix-blend-mode:normal;color-interpolation:sRGB;color-interpolation-filters:linearRGB;solid-color:#000000;solid-opacity:1;fill:none;fill-opacity:1;fill-rule:evenodd;stroke:#ffffff;stroke-width:9.60001183;stroke-linecap:butt;stroke-linejoin:round;stroke-miterlimit:4;stroke-dasharray:none;stroke-dashoffset:0;stroke-opacity:1;color-rendering:auto;image-rendering:auto;shape-rendering:auto;text-rendering:auto;enable-background:accumulate"
     d="m 425.95246,4.8000834 c -16.66266,0.03344 -31.38019,10.1808046 -43.47503,23.1859656 -0.46539,0.500416 -0.86657,1.071761 -1.32501,1.58125 -0.58561,-1.599042 -1.66558,-3.137812 -3.32187,-3.784381 -2.63153,-1.027265 -4.85308,-0.133312 -6.41407,1.057817 l -0.63438,0.482809 -0.44219,0.662505 C 352.37142,54.81089 341.88894,82.694924 336.73987,108.94865 l -2.00313,0.0547 -1.27031,-14.525025 c -0.2189,-2.510288 -2.34146,-4.424072 -4.86094,-4.382813 -0.0182,4.29e-4 -0.0365,9.63e-4 -0.0547,0.0016 l -24.54847,0.689064 c -2.60005,0.07392 -4.66824,2.205156 -4.66406,4.806254 l 0.0375,21.15785 c -0.15089,-0.19419 -0.31648,-0.3765 -0.49531,-0.54531 l -26.91566,-25.115673 -0.002,0.0016 c -0.12473,-0.117335 -0.25565,-0.227912 -0.39219,-0.331257 -0.83438,-0.62053 -1.84768,-0.953362 -2.8875,-0.948433 l 0.005,-0.01094 -51.81882,0.04062 c -2.64903,0.002 -4.79575,2.14941 -4.79688,4.798438 v 19.979725 c -0.63234,-0.91119 -1.56,-1.57435 -2.625,-1.87656 l -13.55627,-3.82188 -2.7625,-11.231281 c -0.41239,-1.677301 -1.69408,-3.003742 -3.35625,-3.473436 l -39.0843,-11.021968 c -0.46296,-0.129807 -0.9428,-0.189324 -1.42344,-0.17656 -1.70291,0.04198 -3.25603,0.983254 -4.08125,2.473443 l -12.29064,22.223472 -14.42502,-6.1172 -2.34219,-9.125016 c -0.37168,-1.449181 -1.39776,-2.642222 -2.77501,-3.226563 L 89.048944,78.939232 c -0.591149,-0.250793 -1.226607,-0.380434 -1.868755,-0.381249 -1.957707,-0.0019 -3.720431,1.18521 -4.454693,3.000004 l -6.635945,16.410956 c -0.457444,-0.131859 -0.931938,-0.194527 -1.407817,-0.185936 l -7.079697,0.14844 -8.232818,-16.067212 C 58.53094,80.229117 56.832838,79.215962 54.995773,79.254864 l -26.523464,0.556249 c -2.367966,0.05063 -4.345111,1.820768 -4.656262,4.168749 L 4.8394636,226.80349 c -0.413557,3.10444 2.208302,5.76712 5.3187584,5.40157 l 16.381268,-1.92032 -1.998442,15.04533 c -0.412657,3.10257 2.197448,5.76503 5.296886,5.40314 l 40.02817,-4.69376 c 2.411845,-0.28215 4.230765,-2.33145 4.231261,-4.76719 v -62.71258 l 0.775001,-0.0391 7.806258,16.1844 c 0.836254,1.73285 2.62366,2.79693 4.540629,2.70312 l 2.695316,-0.13125 11.157831,11.28595 2.34843,13.43127 c 0.50015,2.85399 3.39549,4.61777 6.16095,3.75313 l 7.52813,-2.35469 3.66251,3.70469 2.34844,13.42658 c 0.49912,2.85076 3.38092,4.61346 6.13594,3.75313 l 33.38599,-10.44064 c 2.43372,-0.76153 3.84505,-3.30317 3.20937,-5.77969 l -3.10937,-12.10627 11.43907,2.4625 3.25157,9.78439 c 0.76543,2.30141 3.12725,3.67037 5.50469,3.19063 l 8.52501,-1.72031 5.66875,17.06095 c 0.76407,2.298 3.11525,3.66488 5.48283,3.18751 l 36.13598,-7.28907 c 0.59837,-0.12175 1.16799,-0.35723 1.67813,-0.69375 h 25.06721 c 2.63689,-6.7e-4 4.7764,-2.14088 4.78438,-4.78595 l 0.0188,-7.71251 c 1.1578,0.2077 2.35157,-0.0169 3.35469,-0.63125 l 2.85469,-1.75 10.12657,18.4969 c 1.31395,2.40089 4.36089,3.21421 6.69064,1.78594 l 25.91565,-15.89533 0.0125,7.24063 c 0.005,2.91205 2.57338,5.14865 5.44843,4.74532 l 34.85318,-4.87501 c 1.46587,-0.20631 2.75407,-1.08145 3.48906,-2.37031 2.09239,1.73013 4.29364,3.26551 6.58908,4.6 0.0498,0.0728 0.0985,0.14958 0.14843,0.22188 l 0.003,0.003 0.002,0.005 c 1.47143,2.12059 3.03047,4.67714 5.30626,6.90626 2.22775,2.64399 4.53156,4.45133 6.48438,6.14844 l 0.002,0.002 c 16.52495,14.35036 40.32323,16.26538 62.17822,1.89844 10.84689,-7.13052 21.30242,-18.0736 30.68443,-33.27192 32.98364,20.05911 84.93755,-8.35541 69.20473,-50.21881 -5.46297,-14.53641 -29.4642,-8.67881 -32.12812,6.32813 -4.93257,27.78717 -19.0525,27.37833 -25.60323,21.84378 4.84712,-11.02532 9.22889,-23.55794 13.01409,-37.6813 -0.0193,0.0564 -0.0385,0.11743 -0.0578,0.17343 l 0.1,-0.32812 c -0.014,0.0523 -0.0282,0.10248 -0.0422,0.15469 5.36745,-15.69726 8.96665,-48.21191 3.52817,-78.542295 -2.45832,-13.710401 -6.80345,-26.944506 -14.11722,-37.695359 11.6545,-18.412655 15.5365,-35.231828 7.88905,-33.493795 -8.06425,1.832779 -18.66466,9.749822 -28.23747,13.537522 -0.52441,-0.731657 -1.06193,-1.451482 -1.61568,-2.157818 -8.8604,-11.3019 -21.82801,-19.0656127 -38.78051,-19.7834136 l -0.0125,-0.00157 h -0.0125 c -0.54161,-0.020208 -1.08129,-0.03076 -1.61881,-0.02968 z m 111.72518,6.8703206 c -4.18016,0.01601 -8.61665,0.728816 -13.21881,2.285938 -24.45227,8.27334 -22.15419,26.604506 -22.18123,33.804731 l 17.83906,-2.575003 c 8.95969,-27.640498 40.82885,-7.207913 15.9453,8.690635 -25.82163,16.497956 -25.29259,26.714177 -25.07659,36.293797 0.0947,4.201789 1.06544,7.876393 3.77192,10.506258 l 64.47976,-11.068763 c -0.90752,-6.002079 -2.7536,-14.404202 -5.26408,-20.981274 -10.14674,-0.384624 -23.90227,4.659982 -34.76565,6.992193 4.57785,-9.855437 10.70338,-7.469698 17.61099,-12.084391 C 583.64626,45.611711 566.93864,11.5583 537.67764,11.670404 Z"
     id="path4303-5"
     inkscape:connector-curvature="0"
     sodipodi:nodetypes="cscscccccccccccccccccccccccccccccccccccccccccccccccccccccccccccccccccsccccccccccccccccccccccccscsscccccscscscccccssccssccccss" />
  <ellipse
     style="opacity:0.98999999;fill:#64b0ff;fill-opacity:1;fill-rule:evenodd;stroke:none;stroke-width:0.80000097;stroke-linecap:round;stroke-linejoin:round;stroke-miterlimit:4;stroke-dasharray:none;stroke-opacity:1"
     id="path4664-6-0"
     cx="430.32877"
     cy="128.48743"
     rx="58.914417"
     ry="105.76318"
     transform="matrix(1,0,-0.17082587,0.98530123,0,0)"
     inkscape:export-filename="D:\Estimado cliente\Desktop\mari3.png"
     inkscape:export-xdpi="23.106718"
     inkscape:export-ydpi="23.106718" />
  <path
     style="color:#000000;font-style:normal;font-variant:normal;font-weight:normal;font-stretch:normal;font-size:medium;line-height:normal;font-family:sans-serif;text-indent:0;text-align:start;text-decoration:none;text-decoration-line:none;text-decoration-style:solid;text-decoration-color:#000000;letter-spacing:normal;word-spacing:normal;text-transform:none;writing-mode:lr-tb;direction:ltr;baseline-shift:baseline;text-anchor:start;white-space:normal;clip-rule:nonzero;display:inline;overflow:visible;visibility:visible;opacity:1;isolation:auto;mix-blend-mode:normal;color-interpolation:sRGB;color-interpolation-filters:linearRGB;solid-color:#000000;solid-opacity:1;fill:#1412a7;fill-opacity:1;fill-rule:evenodd;stroke:none;stroke-width:9.60001183;stroke-linecap:butt;stroke-linejoin:round;stroke-miterlimit:4;stroke-dasharray:none;stroke-dashoffset:0;stroke-opacity:1;color-rendering:auto;image-rendering:auto;shape-rendering:auto;text-rendering:auto;enable-background:accumulate"
     d="m 106.85772,97.08587 a 4.7856143,4.8004865 0 0 0 -4.43468,2.99688 L 92.041236,125.7656 79.036311,100.38745 A 4.7856143,4.8004865 0 0 0 74.681082,97.78276 L 48.15724,98.34057 a 4.7856143,4.8004865 0 0 0 -4.6434,4.16562 L 24.539975,245.32985 a 4.7856143,4.8004865 0 0 0 5.297606,5.40314 l 40.028774,-4.69377 a 4.7856143,4.8004865 0 0 0 4.230612,-4.76719 V 176.9157 l 8.581167,17.78908 a 4.7856143,4.8004865 0 0 0 4.540579,2.70313 l 8.049993,-0.39375 a 4.7856143,4.8004865 0 0 0 4.024991,-2.60001 l 11.754123,-22.94847 3.97048,22.71724 -7.86618,14.22501 a 4.7856143,4.8004865 0 0 0 0.78661,5.70939 l 12.83357,12.9797 2.34739,13.42658 a 4.7856143,4.8004865 0 0 0 6.1372,3.75312 l 33.38535,-10.44063 a 4.7856143,4.8004865 0 0 0 3.20879,-5.7797 l -3.1091,-12.10626 26.02385,5.60312 8.36619,25.17504 a 4.7856143,4.8004865 0 0 0 5.48296,3.18751 l 36.13464,-7.28907 a 4.7856143,4.8004865 0 0 0 1.67916,-0.69375 h 25.06744 a 4.7856143,4.8004865 0 0 0 4.78357,-4.78595 l 0.0529,-21.37346 16.30249,29.7766 a 4.7856143,4.8004865 0 0 0 6.69015,1.78593 l 25.91636,-15.89533 0.0125,7.24064 a 4.7856143,4.8004865 0 0 0 5.44715,4.74531 l 34.85421,-4.87501 a 4.7856143,4.8004865 0 0 0 4.10444,-5.17499 L 353.13643,113.00465 a 4.7856143,4.8004865 0 0 0 -4.849,-4.38126 4.7856143,4.8004865 0 0 0 -0.0529,0.002 l -24.54876,0.68906 a 4.7856143,4.8004865 0 0 0 -4.64962,4.80782 l 0.0374,21.18753 a 4.7856143,4.8004865 0 0 0 -0.52338,-0.5828 l -26.91639,-25.11255 -0.002,0.002 a 4.7856143,4.8004865 0 0 0 -1.11841,-0.78125 4.7856143,4.8004865 0 0 0 -2.14488,-0.5 l 0.002,-0.006 -51.81718,0.0406 a 4.7856143,4.8004865 0 0 0 -4.78202,4.80001 v 80.17825 l -18.97232,-77.13561 a 4.7856143,4.8004865 0 0 0 -3.35211,-3.47031 L 170.3636,101.72295 a 4.7856143,4.8004865 0 0 0 -1.41904,-0.17813 4.7856143,4.8004865 0 0 0 -4.05925,2.4703 l -21.09075,38.13758 -8.00015,-31.15632 a 4.7856143,4.8004865 0 0 0 -2.77108,-3.22499 L 108.72147,97.46468 a 4.7856143,4.8004865 0 0 0 -1.86453,-0.37969 z"
     id="path4325-0-6-6"
     inkscape:connector-curvature="0"
     inkscape:export-filename="D:\Estimado cliente\Desktop\mari3.png"
     inkscape:export-xdpi="23.106718"
     inkscape:export-ydpi="23.106718" />
  <path
     style="fill:#fc9838;fill-opacity:1;fill-rule:evenodd;stroke:#000000;stroke-width:4.79256487;stroke-linecap:butt;stroke-linejoin:miter;stroke-miterlimit:4;stroke-dasharray:none;stroke-opacity:1"
     d="m 409.36694,207.92643 c -21.67062,11.55859 -23.22085,-19.37172 -17.87209,-24.73708 5.33343,-5.35003 -11.16232,-27.14029 3.08595,-41.43285 14.24826,-14.29255 35.97099,2.25452 41.30445,-3.09554 5.34875,-5.36539 36.18321,-3.81032 24.66046,17.92767 -6.73287,12.70171 -9.1317,12.38364 -23.91316,27.21104 -14.78145,14.8274 -14.60325,17.37299 -27.26561,24.12676 z"
     id="path4467-0-2-9-1-3-6"
     inkscape:connector-curvature="0"
     sodipodi:nodetypes="sszsszs"
     inkscape:export-filename="D:\Estimado cliente\Desktop\mari3.png"
     inkscape:export-xdpi="23.106718"
     inkscape:export-ydpi="23.106718" />
  <path
     style="fill:#ffffff;fill-opacity:1;fill-rule:evenodd;stroke:#ffffff;stroke-width:0.79876077px;stroke-linecap:butt;stroke-linejoin:miter;stroke-opacity:1"
     d="m 414.38131,188.21569 c -0.42105,3.55383 3.93049,6.50497 4.61812,7.1789 0.27071,0.27155 1.35997,1.78733 0.20941,2.12119 -3.6463,1.26062 -5.47403,0.88258 -9.37325,0.0954"
     id="path4465-4-7-3-6-7-1"
     inkscape:connector-curvature="0"
     sodipodi:nodetypes="cscc"
     inkscape:export-filename="D:\Estimado cliente\Desktop\mari3.png"
     inkscape:export-xdpi="23.106718"
     inkscape:export-ydpi="23.106718" />
  <path
     style="fill:#ffffff;fill-opacity:1;fill-rule:evenodd;stroke:#ffffff;stroke-width:0.79876077px;stroke-linecap:butt;stroke-linejoin:miter;stroke-opacity:1"
     d="m 440.89609,161.6185 c 3.54285,-0.42236 6.48477,3.94278 7.15662,4.63255 0.2707,0.27155 1.78186,1.36413 2.11462,0.21003 1.2567,-3.65761 0.87984,-5.49102 0.0951,-9.40237"
     id="path4465-4-7-4-4-4-5-5"
     inkscape:connector-curvature="0"
     sodipodi:nodetypes="cscc"
     inkscape:export-filename="D:\Estimado cliente\Desktop\mari3.png"
     inkscape:export-xdpi="23.106718"
     inkscape:export-ydpi="23.106718" />
  <ellipse
     style="opacity:0.98999999;fill:#ffffff;fill-opacity:1;fill-rule:evenodd;stroke:none;stroke-width:1.07120132;stroke-linecap:butt;stroke-linejoin:round;stroke-miterlimit:4;stroke-dasharray:none;stroke-opacity:1"
     id="path4443-9-2-7-9-1"
     cx="191.43819"
     cy="406.36029"
     rx="7.3350186"
     ry="13.678621"
     transform="matrix(0.7060089,-0.70820296,0.7060089,0.70820296,0,0)"
     inkscape:export-filename="D:\Estimado cliente\Desktop\mari3.png"
     inkscape:export-xdpi="23.106718"
     inkscape:export-ydpi="23.106718" />
  <path
     inkscape:connector-curvature="0"
     style="opacity:0.98999999;fill:#000000;fill-opacity:1;fill-rule:evenodd;stroke:none;stroke-width:1.33899999;stroke-linecap:butt;stroke-linejoin:round;stroke-miterlimit:4;stroke-dasharray:none;stroke-opacity:1"
     d="m 417.3029,152.02608 c -1.15718,1.16645 -1.07435,3.95862 0.58811,6.34367 4.87931,4.37672 9.536,5.51731 12.3899,4.43839 0.28051,-2.11373 -1.20746,-5.18615 -3.74437,-7.73124 -3.38995,-3.40019 -7.52388,-4.76604 -9.23364,-3.05082 z"
     id="path4445-5-9-5-9-7"
     sodipodi:nodetypes="ccccc"
     inkscape:export-filename="D:\Estimado cliente\Desktop\mari3.png"
     inkscape:export-xdpi="23.106718"
     inkscape:export-ydpi="23.106718" />
  <ellipse
     style="opacity:0.98999999;fill:#ffffff;fill-opacity:1;fill-rule:evenodd;stroke:none;stroke-width:1.07120132;stroke-linecap:butt;stroke-linejoin:round;stroke-miterlimit:4;stroke-dasharray:none;stroke-opacity:1"
     id="path4443-8-5-8-9-8-5"
     cx="-167.28719"
     cy="406.36029"
     rx="7.3350186"
     ry="13.678621"
     transform="matrix(-0.7060089,0.70820296,0.7060089,0.70820296,0,0)"
     inkscape:export-filename="D:\Estimado cliente\Desktop\mari3.png"
     inkscape:export-xdpi="23.106718"
     inkscape:export-ydpi="23.106718" />
  <path
     style="fill:#000000;fill-opacity:1;fill-rule:evenodd;stroke:#000000;stroke-width:1.99690187;stroke-linecap:butt;stroke-linejoin:round;stroke-miterlimit:4;stroke-dasharray:none;stroke-opacity:1"
     d="m 384.07062,170.96476 c -3.34267,-12.93232 6.58019,-21.79303 30.13065,-9.52679 -12.22824,-23.62369 -3.39497,-33.57739 9.49724,-30.22428 -19.95105,14.21631 -6.39932,17.15717 -8.35775,31.3673 -14.1661,1.96452 -17.09786,-11.62932 -31.27014,8.38377 z"
     id="path4441-4-4-2-7-9-5"
     inkscape:connector-curvature="0"
     sodipodi:nodetypes="ccccc"
     inkscape:export-filename="D:\Estimado cliente\Desktop\mari3.png"
     inkscape:export-xdpi="23.106718"
     inkscape:export-ydpi="23.106718" />
  <path
     style="fill:#000000;fill-opacity:1;fill-rule:evenodd;stroke:#000000;stroke-width:0.79876077;stroke-linecap:round;stroke-linejoin:round;stroke-miterlimit:4;stroke-dasharray:none;stroke-opacity:1"
     d="m 408.63052,200.58849 c 1.31278,-11.8559 3.74632,-14.00152 17.19408,-27.49108 13.44776,-13.48956 15.58672,-15.93066 27.40587,-17.24747 -11.0827,4.22242 -14.89458,8.53862 -25.49115,19.16815 -10.59657,10.62951 -14.89941,14.45322 -19.1088,25.5704 z"
     id="path4463-8-5-9-9-5-8"
     inkscape:connector-curvature="0"
     sodipodi:nodetypes="czczc"
     inkscape:export-filename="D:\Estimado cliente\Desktop\mari3.png"
     inkscape:export-xdpi="23.106718"
     inkscape:export-ydpi="23.106718" />
  <path
     inkscape:connector-curvature="0"
     style="opacity:0.98999999;fill:#000000;fill-opacity:1;fill-rule:evenodd;stroke:none;stroke-width:1.33899999;stroke-linecap:butt;stroke-linejoin:round;stroke-miterlimit:4;stroke-dasharray:none;stroke-opacity:1"
     d="m 404.81856,164.54923 c 1.16283,-1.16077 3.94634,-1.07769 6.32401,0.58993 4.36317,4.89447 5.5002,9.56565 4.4247,12.42835 -2.10726,0.28144 -5.17015,-1.21116 -7.70734,-3.75594 -3.3896,-3.40055 -4.75123,-7.54733 -3.04137,-9.26234 z"
     id="path4445-5-2-7-8-2-3"
     sodipodi:nodetypes="ccccc"
     inkscape:export-filename="D:\Estimado cliente\Desktop\mari3.png"
     inkscape:export-xdpi="23.106718"
     inkscape:export-ydpi="23.106718" />
  <path
     style="color:#000000;font-style:normal;font-variant:normal;font-weight:normal;font-stretch:normal;font-size:medium;line-height:normal;font-family:sans-serif;text-indent:0;text-align:start;text-decoration:none;text-decoration-line:none;text-decoration-style:solid;text-decoration-color:#000000;letter-spacing:normal;word-spacing:normal;text-transform:none;writing-mode:lr-tb;direction:ltr;baseline-shift:baseline;text-anchor:start;white-space:normal;clip-rule:nonzero;display:inline;overflow:visible;visibility:visible;opacity:1;isolation:auto;mix-blend-mode:normal;color-interpolation:sRGB;color-interpolation-filters:linearRGB;solid-color:#000000;solid-opacity:1;fill:#000000;fill-opacity:1;fill-rule:evenodd;stroke:none;stroke-width:9.60001183;stroke-linecap:butt;stroke-linejoin:miter;stroke-miterlimit:4;stroke-dasharray:none;stroke-dashoffset:0;stroke-opacity:1;color-rendering:auto;image-rendering:auto;shape-rendering:auto;text-rendering:auto;enable-background:accumulate"
     d="m 447.02536,23.49133 c 65.07172,46.51459 -3.30214,293.41363 -90.08808,186.82658 3.10487,12.57036 7.56043,23.03717 12.84374,30.68518 l 0.004,0.004 0.002,0.004 c 1.47143,2.12059 3.03,4.67712 5.30578,6.90624 2.22775,2.64399 4.53093,4.45134 6.48375,6.14845 l 0.002,0.002 c 16.52495,14.35036 40.32292,16.26538 62.17787,1.89844 10.84689,-7.13051 21.30323,-18.07373 30.68523,-33.27204 32.98367,20.0591 84.93686,-8.35579 69.20403,-50.21918 -5.46297,-14.53641 -29.46459,-8.6785 -32.12851,6.32844 -4.93256,27.78717 -19.05264,27.37913 -25.60334,21.84458 4.86498,-11.06607 9.26296,-23.64872 13.05773,-37.83611 l -0.10124,0.32812 c 5.39938,-15.63203 9.04451,-48.27736 3.58649,-78.71681 -2.45829,-13.71 -6.80423,-26.94283 -14.11801,-37.69368 11.65448,-18.41266 15.53777,-35.23235 7.89031,-33.49431 -8.21268,1.8665 -19.0592,10.05462 -28.76835,13.7533 -4.76602,-1.68014 -14.75269,-3.25538 -20.41185,-3.495 l -0.0117,-0.002 h -0.0117 z"
     id="path4348-8-6-1"
     inkscape:connector-curvature="0"
     sodipodi:nodetypes="ccccccccscsscccscsccccc"
     inkscape:export-filename="D:\Estimado cliente\Desktop\mari3.png"
     inkscape:export-xdpi="23.106718"
     inkscape:export-ydpi="23.106718" />
  <path
     inkscape:connector-curvature="0"
     id="30c2fb-2-3-2-3"
     d="m 427.39192,9.6266498 c -30.54509,-1.14 -56.56424,37.2300102 -69.88285,64.7500102 2.6418,-13.26 18.87137,-41.59001 19.35985,-42.41001 0.1296,-1.93 -1.37574,-2.2 -2.54209,-1.31 -50.51305,75.41001 -40.56396,159.28005 -20.06765,188.95005 1.57509,2.27001 3.13027,4.71001 4.80506,6.32001 1.90409,2.33 4.02749,3.96999 6.19076,5.85 30.06657,26.11 83.84945,7.54999 109.63931,-88.87001 C 484.70382,114.50667 489.97742,12.27665 427.39192,9.6266498 Z M 426.25545,27.79665 c -40.84308,0.63 -66.23417,77.12001 -68.23796,104.51001 -8.55343,84.94004 27.89333,111.44005 60.82101,92.26005 -43.98331,9.33999 -50.64262,-40.58001 -53.09502,-52.50002 0.0199,-1.60999 1.08664,-1.49999 1.50533,-0.57001 15.13298,62.42002 64.16062,54.08003 89.1729,-16.08998 16.20962,-44.68003 9.92914,-96.18004 1.88414,-107.29004 8.29422,39.13 -3.02061,68.10001 -4.52594,72.45001 -0.74767,1.23001 -1.88414,0.52 -1.74458,-0.76001 7.38705,-23.32999 10.98587,-87.27001 -25.77988,-92.01001 z"
     style="fill:none;fill-opacity:1;fill-rule:evenodd;stroke:#000000;stroke-width:9.60001183;stroke-miterlimit:4;stroke-dasharray:none;stroke-opacity:1"
     inkscape:export-filename="D:\Estimado cliente\Desktop\mari3.png"
     inkscape:export-xdpi="23.106718"
     inkscape:export-ydpi="23.106718" />
  <path
     inkscape:connector-curvature="0"
     style="fill:none;fill-opacity:1;fill-rule:evenodd;stroke:#000000;stroke-width:9.60001183;stroke-linecap:butt;stroke-linejoin:round;stroke-miterlimit:4;stroke-dasharray:none;stroke-opacity:1"
     d="m 268.69042,94.5999 -51.81872,0.0406 v 123.96583 h 28.93979 l 0.0981,-39.98913 25.23566,46.09537 34.36668,-21.07814 -29.65475,-30.92662 20.42404,-7.87969 -0.67445,-45.11415 -26.91639,-25.11409 z m -23.46774,25.11721 27.19366,8.91097 -0.4159,15.04379 -21.2465,19.64064 -5.83188,0.13907 z"
     id="path4156-8-7-1-6"
     inkscape:export-filename="D:\Estimado cliente\Desktop\mari3.png"
     inkscape:export-xdpi="23.106718"
     inkscape:export-ydpi="23.106718" />
  <path
     inkscape:connector-curvature="0"
     style="fill:#64b0ff;fill-opacity:1;fill-rule:evenodd;stroke:none;stroke-width:0.80000097px;stroke-linecap:butt;stroke-linejoin:miter;stroke-opacity:1"
     d="m 268.69041,94.5999 -51.81873,0.0406 v 123.96581 h 28.93979 l 0.0981,-39.98911 25.23567,46.09536 34.36668,-21.07814 -29.65476,-30.92661 20.42405,-7.8797 -0.67446,-45.11414 -26.91638,-25.11409 z m -23.46773,25.11721 27.19365,8.91097 -0.41589,15.04378 -21.24651,19.64065 -5.83187,0.13907 z"
     id="path4156-3-5-2"
     inkscape:export-filename="D:\Estimado cliente\Desktop\mari3.png"
     inkscape:export-xdpi="23.106718"
     inkscape:export-ydpi="23.106718" />
  <path
     inkscape:connector-curvature="0"
     style="fill:none;fill-opacity:1;fill-rule:evenodd;stroke:#000000;stroke-width:9.60001183;stroke-linecap:butt;stroke-linejoin:round;stroke-miterlimit:4;stroke-dasharray:none;stroke-opacity:1"
     d="m 149.38447,87.81552 -57.731597,104.39391 23.565837,23.83597 14.53145,-26.39692 43.00701,9.25784 9.2307,27.7766 36.13463,-7.28907 -29.65475,-120.558 z m 3.73526,44.11412 7.2665,0.59062 8.64035,41.17196 -28.27936,-11.42501 z"
     id="path4154-5-6-6-1"
     inkscape:export-filename="D:\Estimado cliente\Desktop\mari3.png"
     inkscape:export-xdpi="23.106718"
     inkscape:export-ydpi="23.106718" />
  <path
     inkscape:connector-curvature="0"
     style="fill:#64b0ff;fill-opacity:1;fill-rule:evenodd;stroke:none;stroke-width:0.80000097px;stroke-linecap:butt;stroke-linejoin:miter;stroke-opacity:1"
     d="m 149.38446,87.81552 -57.731617,104.39391 23.565857,23.83596 14.53144,-26.39691 43.00702,9.25783 9.23071,27.77659 36.13461,-7.28906 -29.65475,-120.55799 z m 3.73526,44.11412 7.2665,0.59062 8.64034,41.17195 -28.27934,-11.42502 z"
     id="path4154-1-5-7"
     inkscape:export-filename="D:\Estimado cliente\Desktop\mari3.png"
     inkscape:export-xdpi="23.106718"
     inkscape:export-ydpi="23.106718" />
  <path
     style="fill:none;fill-opacity:1;fill-rule:evenodd;stroke:#000000;stroke-width:9.60001183;stroke-linecap:butt;stroke-linejoin:round;stroke-miterlimit:4;stroke-dasharray:none;stroke-opacity:1"
     d="m 9.5984779,227.43706 40.0281151,-4.69399 v -85.29744 l 17.674324,36.64047 8.051638,-0.39396 18.263477,-35.65552 14.532248,83.13052 L 141.5331,210.72658 111.47473,93.66545 87.173763,83.35767 72.870907,118.73838 55.096485,84.05414 28.573729,84.61132 Z"
     id="path4148-1-1-7-3"
     inkscape:connector-curvature="0"
     sodipodi:nodetypes="cccccccccccccc"
     inkscape:export-filename="D:\Estimado cliente\Desktop\mari3.png"
     inkscape:export-xdpi="23.106718"
     inkscape:export-ydpi="23.106718" />
  <path
     style="fill:#64b0ff;fill-opacity:1;fill-rule:evenodd;stroke:none;stroke-width:0.80000097px;stroke-linecap:butt;stroke-linejoin:miter;stroke-opacity:1"
     d="m 9.5984879,227.43706 40.0281151,-4.69399 v -85.29744 l 17.674314,36.64047 8.051638,-0.39397 18.263477,-35.65551 14.532248,83.13051 L 141.5331,210.72656 111.47473,93.66545 87.173763,83.35767 72.870907,118.73838 55.096485,84.05414 28.573739,84.61132 Z"
     id="path4148-0-1-6"
     inkscape:connector-curvature="0"
     sodipodi:nodetypes="cccccccccccccc"
     inkscape:export-filename="D:\Estimado cliente\Desktop\mari3.png"
     inkscape:export-xdpi="23.106718"
     inkscape:export-ydpi="23.106718" />
  <path
     style="fill:none;fill-opacity:1;fill-rule:evenodd;stroke:#000000;stroke-width:9.60001183;stroke-linecap:butt;stroke-linejoin:round;stroke-miterlimit:4;stroke-dasharray:none;stroke-opacity:1"
     d="m 304.13691,95.5849 24.54767,-0.68948 10.52484,120.37385 -34.85452,4.8753 z"
     id="path4160-1-6-8-1"
     inkscape:connector-curvature="0"
     inkscape:export-filename="D:\Estimado cliente\Desktop\mari3.png"
     inkscape:export-xdpi="23.106718"
     inkscape:export-ydpi="23.106718" />
  <path
     inkscape:connector-curvature="0"
     id="30c2fb-3-5-4"
     d="m 427.39192,9.6266498 c -30.54509,-1.14 -56.56424,37.2300102 -69.88285,64.7500102 2.6418,-13.26 18.87137,-41.59001 19.35985,-42.41001 0.1296,-1.93 -1.37574,-2.2 -2.54209,-1.31 -50.51305,75.41001 -40.56396,159.28003 -20.06765,188.95004 1.57509,2.27 3.13027,4.71 4.80506,6.32 1.90409,2.33 4.02749,3.97001 6.19076,5.85 30.06657,26.11 83.84943,7.55 109.63929,-88.87002 9.80952,-28.4 15.08313,-130.63002 -47.50237,-133.2800202 z M 426.25545,27.79665 c -40.84308,0.63 -66.23417,77.12 -68.23796,104.51001 -8.55343,84.94004 27.89333,111.44004 60.82101,92.26003 -43.98331,9.34001 -50.64262,-40.57999 -53.09502,-52.5 0.0199,-1.61001 1.08664,-1.50001 1.50533,-0.57001 15.13298,62.42002 64.16062,54.08001 89.1729,-16.08999 16.20962,-44.68004 9.92914,-96.18003 1.88414,-107.29003 8.29422,39.13 -3.02063,68.09999 -4.52594,72.45001 -0.74767,1.22999 -1.88414,0.52 -1.74458,-0.76001 7.38705,-23.32999 10.98587,-87.27001 -25.77988,-92.01001 z"
     style="fill:#fc9838;fill-opacity:1;fill-rule:evenodd;stroke:none;stroke-width:1;stroke-opacity:1"
     inkscape:export-filename="D:\Estimado cliente\Desktop\mari3.png"
     inkscape:export-xdpi="23.106718"
     inkscape:export-ydpi="23.106718" />
  <path
     style="fill:#64b0ff;fill-opacity:1;fill-rule:evenodd;stroke:none;stroke-width:0.80000097px;stroke-linecap:butt;stroke-linejoin:miter;stroke-opacity:1"
     d="m 304.13691,95.5849 24.54767,-0.68948 10.52484,120.37384 -34.85452,4.8753 z"
     id="path4160-6-3-5"
     inkscape:connector-curvature="0"
     inkscape:export-filename="D:\Estimado cliente\Desktop\mari3.png"
     inkscape:export-xdpi="23.106718"
     inkscape:export-ydpi="23.106718" />
  <path
     style="fill:#000000;fill-opacity:1;fill-rule:evenodd;stroke:none;stroke-width:0.80000097px;stroke-linecap:butt;stroke-linejoin:miter;stroke-opacity:1"
     d="m 502.27778,47.76121 17.83888,-2.57514 c 8.95967,-27.6405 40.8277,-7.20741 15.94417,8.69114 -25.82168,16.49796 -25.2916,26.71317 -25.0756,36.29279 0.0947,4.20179 1.06438,7.87701 3.77087,10.50688 l 64.48067,-11.06931 c -0.90753,-6.00208 -2.7531,-14.40394 -5.26355,-20.98101 -10.14672,-0.38462 -23.90366,4.66064 -34.76707,6.99285 4.57783,-9.85544 10.70469,-7.47065 17.61225,-12.08534 30.66056,-20.48322 4.45687,-62.0337702 -32.36035,-49.57683 -24.45233,8.27334 -22.15322,26.60375 -22.18027,33.80397 z"
     id="path4350-4-6-1"
     inkscape:connector-curvature="0"
     sodipodi:nodetypes="ccssccccssc"
     inkscape:export-filename="D:\Estimado cliente\Desktop\mari3.png"
     inkscape:export-xdpi="23.106718"
     inkscape:export-ydpi="23.106718" />
</svg>
