<?xml version="1.0" encoding="UTF-8" standalone="no"?>
<svg
   xmlns:dc="http://purl.org/dc/elements/1.1/"
   xmlns:cc="http://creativecommons.org/ns#"
   xmlns:rdf="http://www.w3.org/1999/02/22-rdf-syntax-ns#"
   xmlns:svg="http://www.w3.org/2000/svg"
   xmlns="http://www.w3.org/2000/svg"
   xmlns:sodipodi="http://sodipodi.sourceforge.net/DTD/sodipodi-0.dtd"
   xmlns:inkscape="http://www.inkscape.org/namespaces/inkscape"
   width="8.7194042in"
   height="8.3196297in"
   viewBox="0 0 627.79703 599.0141"
   id="svg2"
   version="1.1"
   inkscape:version="0.91 r13725"
   sodipodi:docname="path.svg">
  <metadata
     id="metadata9">
    <rdf:RDF>
      <cc:Work
         rdf:about="">
        <dc:format>image/svg+xml</dc:format>
        <dc:type
           rdf:resource="http://purl.org/dc/dcmitype/StillImage" />
        <dc:title></dc:title>
      </cc:Work>
    </rdf:RDF>
  </metadata>
  <defs
     id="defs7" />
  <sodipodi:namedview
     pagecolor="#ffffff"
     bordercolor="#666666"
     borderopacity="1"
     objecttolerance="10"
     gridtolerance="10"
     guidetolerance="10"
     inkscape:pageopacity="0"
     inkscape:pageshadow="2"
     inkscape:window-width="1600"
     inkscape:window-height="838"
     id="namedview5"
     showgrid="false"
     inkscape:zoom="0.70710678"
     inkscape:cx="461.96445"
     inkscape:cy="422.06759"
     inkscape:window-x="-8"
     inkscape:window-y="-8"
     inkscape:window-maximized="1"
     inkscape:current-layer="svg2"
     inkscape:object-paths="true"
     inkscape:snap-intersection-paths="true"
     inkscape:object-nodes="true"
     inkscape:snap-smooth-nodes="true"
     inkscape:snap-global="true"
     showguides="false"
     fit-margin-top="0"
     fit-margin-left="0"
     fit-margin-right="0"
     fit-margin-bottom="0" />
  <rect
     style="opacity:0.98999999;fill:#000000;fill-opacity:1;fill-rule:evenodd;stroke:none;stroke-width:0.80000001;stroke-linecap:round;stroke-linejoin:round;stroke-miterlimit:4;stroke-dasharray:none;stroke-opacity:1"
     id="rect4599"
     width="627.79791"
     height="599.0141"
     x="-0.00063476647"
     y="0" />
  <path
     style="color:#000000;font-style:normal;font-variant:normal;font-weight:normal;font-stretch:normal;font-size:medium;line-height:normal;font-family:sans-serif;text-indent:0;text-align:start;text-decoration:none;text-decoration-line:none;text-decoration-style:solid;text-decoration-color:#000000;letter-spacing:normal;word-spacing:normal;text-transform:none;direction:ltr;block-progression:tb;writing-mode:lr-tb;baseline-shift:baseline;text-anchor:start;white-space:normal;clip-rule:nonzero;display:inline;overflow:visible;visibility:visible;opacity:1;isolation:auto;mix-blend-mode:normal;color-interpolation:sRGB;color-interpolation-filters:linearRGB;solid-color:#000000;solid-opacity:1;fill:none;fill-opacity:1;fill-rule:evenodd;stroke:#ffffff;stroke-width:9.60001183;stroke-linecap:butt;stroke-linejoin:round;stroke-miterlimit:4;stroke-dasharray:none;stroke-dashoffset:0;stroke-opacity:1;color-rendering:auto;image-rendering:auto;shape-rendering:auto;text-rendering:auto;enable-background:accumulate"
     d="m 730.73421,911.74618 c -16.6626,0.0334 -31.3801,10.18081 -43.475,23.18597 -0.4654,0.50041 -0.8666,1.07176 -1.325,1.58125 -0.5856,-1.59905 -1.6656,-3.13782 -3.3219,-3.78438 -2.6315,-1.02727 -4.853,-0.13332 -6.41404,1.05781 l -0.63438,0.48281 -0.44219,0.66251 c -17.96849,26.82484 -28.45097,54.70887 -33.60004,80.96255 l -2.00313,0.055 -1.2703,-14.525 c -0.21891,-2.51027 -2.34147,-4.42406 -4.86095,-4.38279 -0.0182,4.3e-4 -0.0365,8e-4 -0.0547,0.002 l -24.54846,0.68906 c -2.60005,0.0739 -4.66824,2.20516 -4.66406,4.80623 l 0.0375,21.1579 c -0.1509,-0.1942 -0.31648,-0.3765 -0.49532,-0.5454 l -26.91566,-25.11561 -0.002,0.002 c -0.12472,-0.11733 -0.25564,-0.22792 -0.39219,-0.33125 -0.83438,-0.62053 -1.84767,-0.95336 -2.8875,-0.94844 l 0.005,-0.0109 -51.81881,0.0406 c -2.64904,0.002 -4.79575,2.14941 -4.79689,4.7984 l 0,19.9797 c -0.63234,-0.9111 -1.55999,-1.5743 -2.62499,-1.8765 l -13.55628,-3.8219 -2.7625,-11.2313 c -0.41238,-1.6773 -1.69407,-3.0037 -3.35624,-3.4734 l -39.0843,-11.02196 c -0.46296,-0.1298 -0.9428,-0.18932 -1.42344,-0.17656 -1.70291,0.042 -3.25603,0.98325 -4.08125,2.47345 l -12.29064,22.22347 -14.42502,-6.1172 -2.34219,-9.12502 c -0.37168,-1.44919 -1.39777,-2.64222 -2.77502,-3.22657 l -24.30157,-10.30632 c -0.59115,-0.25079 -1.2266,-0.38043 -1.86875,-0.38125 -1.95771,-0.002 -3.72042,1.18521 -4.45469,3 l -6.63595,16.41096 c -0.45744,-0.1319 -0.93194,-0.1945 -1.40782,-0.1859 l -7.07969,0.1484 -8.23282,-16.06721 c -0.83828,-1.63512 -2.53638,-2.64827 -4.37345,-2.60937 l -26.52346,0.55625 c -2.36797,0.0506 -4.34511,1.82077 -4.65626,4.16875 l -18.97658,142.82358 c -0.41356,3.1045 2.2083,5.7672 5.31875,5.4016 l 16.38127,-1.9203 -1.99844,15.0453 c -0.41266,3.1026 2.19745,5.7651 5.29689,5.4032 l 40.02816,-4.6938 c 2.41185,-0.2822 4.23077,-2.3315 4.23127,-4.7672 l 0,-62.7126 0.775,-0.039 7.80625,16.1844 c 0.83627,1.7329 2.62366,2.797 4.54063,2.7031 l 2.69532,-0.1312 11.15782,11.2859 2.34844,13.4313 c 0.50015,2.854 3.39548,4.6178 6.16093,3.7531 l 7.52813,-2.3546 3.66251,3.7046 2.34845,13.4266 c 0.49912,2.8508 3.38091,4.6135 6.13593,3.7532 l 33.386,-10.4407 c 2.43371,-0.7615 3.84504,-3.3032 3.20936,-5.7797 l -3.10936,-12.1062 11.43906,2.4625 3.25158,9.7843 c 0.76543,2.3015 3.12725,3.6704 5.50468,3.1907 l 8.52501,-1.7203 5.66876,17.0609 c 0.76407,2.298 3.11525,3.6649 5.48283,3.1875 l 36.13597,-7.289 c 0.59837,-0.1218 1.168,-0.3573 1.67813,-0.6938 l 25.06721,0 c 2.63689,-7e-4 4.7764,-2.1409 4.78439,-4.7859 l 0.0188,-7.7126 c 1.1578,0.2077 2.35157,-0.017 3.35468,-0.6312 l 2.85469,-1.75 10.12658,18.4969 c 1.31394,2.4009 4.36088,3.2142 6.69064,1.7859 l 25.91564,-15.8953 0.0125,7.2406 c 0.005,2.9121 2.57338,5.1487 5.44843,4.7454 l 34.85317,-4.8751 c 1.46588,-0.2063 2.75408,-1.0814 3.48907,-2.3703 2.09239,1.7302 4.29364,3.2655 6.58908,4.6 0.0498,0.073 0.0985,0.1496 0.14843,0.2219 l 0.003,0 0.002,0.01 c 1.47142,2.1206 3.03049,4.6772 5.30629,6.9063 2.2277,2.644 4.5315,4.4513 6.4844,6.1484 l 0,0 c 16.5249,14.3504 40.3232,16.2654 62.1782,1.8985 10.8469,-7.1306 21.3024,-18.0736 30.6844,-33.272 32.9836,20.0591 84.9376,-8.3554 69.2047,-50.2188 -5.4629,-14.5364 -29.4642,-8.6788 -32.1281,6.3282 -4.9326,27.7871 -19.0525,27.3783 -25.6032,21.8437 4.8471,-11.0253 9.2289,-23.5579 13.0141,-37.6813 -0.019,0.056 -0.038,0.1175 -0.058,0.1735 l 0.1,-0.3282 c -0.014,0.052 -0.028,0.1025 -0.042,0.1547 5.3674,-15.6972 8.9666,-48.2119 3.5281,-78.54225 -2.4583,-13.7104 -6.8034,-26.9445 -14.1172,-37.69537 11.6545,-18.41265 15.5365,-35.23182 7.8891,-33.49379 -8.0643,1.83278 -18.6647,9.74982 -28.2375,13.53752 -0.5244,-0.73166 -1.0619,-1.45148 -1.6157,-2.15782 -8.8604,-11.30189 -21.828,-19.0656 -38.7805,-19.7834 l -0.013,-0.002 -0.013,0 c -0.5416,-0.0202 -1.0813,-0.0308 -1.6188,-0.0297 z m 111.7252,6.87032 c -4.1801,0.016 -8.6166,0.72882 -13.2188,2.28594 -24.4523,8.27334 -22.1542,26.60451 -22.1812,33.80473 l 17.839,-2.575 c 8.9597,-27.6405 40.8289,-7.20792 15.9453,8.69063 -25.8216,16.49796 -25.2925,26.71418 -25.0765,36.2938 0.095,4.2018 1.0654,7.8764 3.7719,10.5063 l 64.4797,-11.06881 c -0.9075,-6.00207 -2.7536,-14.4042 -5.2641,-20.98127 -10.1467,-0.38462 -23.9022,4.65998 -34.7656,6.99219 4.5778,-9.85543 10.7034,-7.46969 17.611,-12.08439 26.8279,-17.92281 10.1203,-51.97622 -19.1407,-51.86412 z"
     id="path4303-5-8"
     inkscape:connector-curvature="0"
     sodipodi:nodetypes="cscscccccccccccccccccccccccccccccccccccccccccccccccccccccccccccccccccsccccccccccccccccccccccccscsscccccscscscccccssccssccccss" />
  <path
     style="opacity:0.98999999;fill:none;fill-opacity:1;fill-rule:evenodd;stroke:#ffffff;stroke-width:9.60001278;stroke-linecap:round;stroke-linejoin:round;stroke-miterlimit:4;stroke-dasharray:none;stroke-opacity:1"
     d="m 453.71321,313.34683 c -16.6628,0.0333 -31.3818,10.17768 -43.4766,23.18283 -0.4651,0.50006 -0.8669,1.0706 -1.325,1.57969 -0.586,-1.59797 -1.6666,-3.13507 -3.3219,-3.78125 -2.6315,-1.02727 -4.8531,-0.13488 -6.4141,1.05625 l -0.6328,0.48438 -0.4437,0.66093 c -14.3245,21.38472 -23.8894,43.44201 -29.7907,64.81103 l -7.4109,0.20781 -1.2703,-14.52658 a 4.8004859,4.8004859 0 0 0 -4.8626,-4.38126 4.8004859,4.8004859 0 0 0 -0.055,0.002 l -24.54686,0.69063 a 4.8004859,4.8004859 0 0 0 -4.66563,4.80625 l 0.0375,21.15316 a 4.8004859,4.8004859 0 0 0 -0.49219,-0.54375 l -26.91567,-25.1141 -0.003,0.003 a 4.8004859,4.8004859 0 0 0 -1.48906,-0.95 4.8004859,4.8004859 0 0 0 -1.78751,-0.33907 l 0,-0.005 -51.81881,0.0406 a 4.8004859,4.8004859 0 0 0 -4.79689,4.80157 l 0,19.97503 a 4.785614,4.8004869 0 0 0 -2.62343,-1.87345 l -13.55784,-3.82344 -2.7625,-11.2297 a 4.8004859,4.8004859 0 0 0 -3.35626,-3.47501 l -39.08453,-11.01872 a 4.8004859,4.8004859 0 0 0 -1.42343,-0.17813 4.8004859,4.8004859 0 0 0 -4.07813,2.475 l -12.29064,22.22347 -14.42658,-6.11876 -2.34376,-9.12657 a 4.8004859,4.8004859 0 0 0 -2.775,-3.22501 L 115.2078,371.48283 a 4.8004859,4.8004859 0 0 0 -1.86876,-0.38124 4.8004859,4.8004859 0 0 0 -4.4547,3.00156 l -6.63283,16.41096 a 4.785614,4.8004869 0 0 0 -1.40937,-0.18594 l -7.079684,0.14844 -8.23439,-16.06564 a 4.8004859,4.8004859 0 0 0 -4.37189,-2.61251 l -26.5219,0.55938 a 4.8004859,4.8004859 0 0 0 -4.65783,4.16563 l -18.97502,142.82671 a 4.8004859,4.8004859 0 0 0 5.31564,5.39848 l 16.38127,-1.92032 -1.99845,15.0469 a 4.785614,4.8004869 0 0 0 5.29845,5.40313 l 40.02817,-4.69377 a 4.785614,4.8004869 0 0 0 4.231264,-4.7672 l 0,-62.71256 0.775,-0.039 7.80626,16.18434 a 4.785614,4.8004869 0 0 0 4.54064,2.70312 l 2.69218,-0.1312 11.16252,11.28906 2.34688,13.42817 a 4.8004859,4.8004859 0 0 0 6.16094,3.75465 l 7.52814,-2.35465 3.66251,3.70313 2.34687,13.42657 a 4.785614,4.8004869 0 0 0 6.13752,3.75313 l 33.38598,-10.44065 a 4.785614,4.8004869 0 0 0 3.20781,-5.77969 l -3.10938,-12.10626 11.44064,2.46249 3.25,9.78441 a 4.8004859,4.8004859 0 0 0 5.5047,3.19216 l 8.52658,-1.72032 5.66875,17.05938 a 4.785614,4.8004869 0 0 0 5.48282,3.18753 l 36.13443,-7.28905 a 4.785614,4.8004869 0 0 0 1.67969,-0.69376 l 25.06721,0 a 4.785614,4.8004869 0 0 0 4.78439,-4.78593 l 0.0187,-7.71097 a 4.8004859,4.8004859 0 0 0 3.35625,-0.63128 l 2.85313,-1.75 10.12658,18.49538 a 4.785614,4.8004869 0 0 0 6.69063,1.78592 l 25.91566,-15.8953 0.0125,7.24057 a 4.785614,4.8004869 0 0 0 5.44691,4.74537 l 28.0078,-3.91721 c 1.2468,1.84201 2.6223,3.87273 4.4797,5.70153 2.2389,2.66752 4.5544,4.48177 6.5172,6.18753 l 0,0.002 c 2.366,2.05456 4.8842,3.846 7.5219,5.37969 0.05,0.0734 0.1,0.15048 0.15,0.22344 l 0.01,0.003 0,0.005 c 1.4714,2.12064 3.0305,4.6772 5.3062,6.90632 2.2278,2.64401 4.53,4.45129 6.4829,6.14841 l 0,0.002 c 16.5249,14.35034 40.3232,16.26538 62.1782,1.8984 10.8469,-7.13048 21.3024,-18.07362 30.6844,-33.27188 32.9837,20.05907 84.9377,-8.35545 69.2048,-50.21886 -5.4629,-14.53642 -29.4659,-8.67881 -32.1298,6.32817 -4.9325,27.78715 -19.0524,27.37835 -25.6031,21.84379 4.8498,-11.03154 9.2352,-23.57171 13.0219,-37.70477 -0.022,0.0642 -0.044,0.13336 -0.066,0.19688 l 0.1015,-0.32816 c -0.012,0.0444 -0.024,0.087 -0.036,0.13128 5.3631,-15.70594 8.9577,-48.20316 3.5219,-78.51884 -2.4583,-13.71 -6.805,-26.94295 -14.1188,-37.6938 11.6545,-18.41266 15.5381,-35.23339 7.8907,-33.49535 -8.0639,1.83268 -18.6651,9.74958 -28.2376,13.53752 -0.5247,-0.73228 -1.0645,-1.45249 -1.6187,-2.15938 -8.8596,-11.30131 -21.8257,-19.06504 -38.7782,-19.78284 l -0.013,0 -0.011,0 c -0.5415,-0.0202 -1.0812,-0.0292 -1.6188,-0.0281 z m 111.7236,6.86876 c -4.1801,0.016 -8.6166,0.72881 -13.2188,2.28594 -24.4523,8.27333 -22.1526,26.6045 -22.1797,33.80473 l 17.8391,-2.57501 c 8.9597,-27.6405 40.8273,-7.20791 15.9438,8.69064 -25.8217,16.49795 -25.2911,26.71261 -25.0751,36.29223 0.095,4.20179 1.064,7.87795 3.7704,10.50783 l 64.4813,-11.06877 c -0.9075,-6.00208 -2.7536,-14.4042 -5.2641,-20.98127 -10.1467,-0.38463 -23.9038,4.65998 -34.7672,6.99219 4.5778,-9.85544 10.705,-7.47126 17.6125,-12.08595 26.828,-17.92282 10.1188,-51.97467 -19.1422,-51.86256 z"
     id="path4664-6-0-3-0"
     inkscape:connector-curvature="0" />
  <ellipse
     style="opacity:0.98999999;fill:#5c94fc;fill-opacity:1;fill-rule:evenodd;stroke:none;stroke-width:0.80000097;stroke-linecap:round;stroke-linejoin:round;stroke-miterlimit:4;stroke-dasharray:none;stroke-opacity:1"
     id="path4664-6-0-3"
     cx="511.58344"
     cy="441.63571"
     rx="58.914417"
     ry="105.76318"
     transform="matrix(1,0,-0.17082587,0.98530123,0,0)"
     inkscape:export-filename="D:\Estimado cliente\Desktop\mari3.png"
     inkscape:export-xdpi="23.106718"
     inkscape:export-ydpi="23.106718" />
  <path
     style="color:#000000;font-style:normal;font-variant:normal;font-weight:normal;font-stretch:normal;font-size:medium;line-height:normal;font-family:sans-serif;text-indent:0;text-align:start;text-decoration:none;text-decoration-line:none;text-decoration-style:solid;text-decoration-color:#000000;letter-spacing:normal;word-spacing:normal;text-transform:none;direction:ltr;block-progression:tb;writing-mode:lr-tb;baseline-shift:baseline;text-anchor:start;white-space:normal;clip-rule:nonzero;display:inline;overflow:visible;visibility:visible;opacity:1;isolation:auto;mix-blend-mode:normal;color-interpolation:sRGB;color-interpolation-filters:linearRGB;solid-color:#000000;solid-opacity:1;fill:#1412a7;fill-opacity:1;fill-rule:evenodd;stroke:none;stroke-width:9.60001183;stroke-linecap:butt;stroke-linejoin:round;stroke-miterlimit:4;stroke-dasharray:none;stroke-dashoffset:0;stroke-opacity:1;color-rendering:auto;image-rendering:auto;shape-rendering:auto;text-rendering:auto;enable-background:accumulate"
     d="m 133.01827,389.63122 a 4.7856141,4.8004867 0 0 0 -4.43468,2.99688 l -10.3818,25.68284 -13.00493,-25.37814 a 4.7856141,4.8004867 0 0 0 -4.35523,-2.60469 l -26.523834,0.55781 a 4.7856141,4.8004867 0 0 0 -4.6434,4.16562 L 50.700526,537.8752 a 4.7856141,4.8004867 0 0 0 5.29761,5.40313 l 40.02877,-4.69376 a 4.7856141,4.8004867 0 0 0 4.230604,-4.76719 l 0,-64.35634 8.58117,17.78909 a 4.7856141,4.8004867 0 0 0 4.54059,2.70312 l 8.04999,-0.39375 a 4.7856141,4.8004867 0 0 0 4.02498,-2.60001 l 11.75413,-22.94847 3.97047,22.71724 -7.86617,14.22501 a 4.7856141,4.8004867 0 0 0 0.7866,5.70939 l 12.83357,12.97971 2.3474,13.42657 a 4.7856141,4.8004867 0 0 0 6.1372,3.75313 l 33.38535,-10.44063 a 4.7856141,4.8004867 0 0 0 3.20879,-5.77971 l -3.1091,-12.10626 26.02385,5.60312 8.36618,25.17505 a 4.7856141,4.8004867 0 0 0 5.48296,3.18751 l 36.13464,-7.28908 a 4.7856141,4.8004867 0 0 0 1.67917,-0.69374 l 25.06744,0 a 4.7856141,4.8004867 0 0 0 4.78356,-4.78595 l 0.0529,-21.37347 16.30249,29.77661 a 4.7856141,4.8004867 0 0 0 6.69015,1.78593 l 25.91636,-15.89534 0.0125,7.24065 a 4.7856141,4.8004867 0 0 0 5.44713,4.74531 l 34.8542,-4.87502 a 4.7856141,4.8004867 0 0 0 4.1045,-5.17499 l -10.5236,-120.37207 a 4.7856141,4.8004867 0 0 0 -4.849,-4.38126 4.7856141,4.8004867 0 0 0 -0.053,0.002 l -24.54875,0.68906 a 4.7856141,4.8004867 0 0 0 -4.64962,4.80782 l 0.0374,21.18753 a 4.7856141,4.8004867 0 0 0 -0.52338,-0.5828 l -26.91639,-25.11255 -0.002,0.002 a 4.7856141,4.8004867 0 0 0 -1.11841,-0.78125 4.7856141,4.8004867 0 0 0 -2.14488,-0.5 l 0.002,-0.006 -51.81718,0.0406 a 4.7856141,4.8004867 0 0 0 -4.78202,4.80001 l 0,80.17825 -18.97231,-77.13561 a 4.7856141,4.8004867 0 0 0 -3.35212,-3.47031 L 196.5241,394.2683 a 4.7856141,4.8004867 0 0 0 -1.41904,-0.17813 4.7856141,4.8004867 0 0 0 -4.05926,2.4703 l -21.09075,38.13757 -8.00014,-31.15632 a 4.7856141,4.8004867 0 0 0 -2.77109,-3.22499 l -24.30187,-10.30706 a 4.7856141,4.8004867 0 0 0 -1.86453,-0.37969 z"
     id="path4325-0-6-6-2"
     inkscape:connector-curvature="0"
     inkscape:export-filename="D:\Estimado cliente\Desktop\mari3.png"
     inkscape:export-xdpi="23.106718"
     inkscape:export-ydpi="23.106718" />
  <path
     style="fill:#fc9838;fill-opacity:1;fill-rule:evenodd;stroke:#000000;stroke-width:4.79256487;stroke-linecap:butt;stroke-linejoin:miter;stroke-miterlimit:4;stroke-dasharray:none;stroke-opacity:1"
     d="m 437.12751,516.47177 c -21.6707,11.55859 -23.2209,-19.37172 -17.8721,-24.73707 5.3334,-5.35004 -11.1623,-27.1403 3.0859,-41.43286 14.2483,-14.29255 35.971,2.25452 41.3045,-3.09554 5.3487,-5.36539 36.1832,-3.81032 24.6604,17.92767 -6.7328,12.70171 -9.1317,12.38364 -23.9131,27.21105 -14.7815,14.82739 -14.6033,17.37299 -27.2656,24.12675 z"
     id="path4467-0-2-9-1-3-6-1"
     inkscape:connector-curvature="0"
     sodipodi:nodetypes="sszsszs"
     inkscape:export-filename="D:\Estimado cliente\Desktop\mari3.png"
     inkscape:export-xdpi="23.106718"
     inkscape:export-ydpi="23.106718" />
  <path
     style="fill:#ffffff;fill-opacity:1;fill-rule:evenodd;stroke:#ffffff;stroke-width:0.79876077px;stroke-linecap:butt;stroke-linejoin:miter;stroke-opacity:1"
     d="m 442.14181,496.76103 c -0.421,3.55384 3.9305,6.50498 4.6182,7.1789 0.2707,0.27156 1.3599,1.78733 0.2094,2.12119 -3.6463,1.26063 -5.4741,0.88259 -9.3733,0.0954"
     id="path4465-4-7-3-6-7-1-3"
     inkscape:connector-curvature="0"
     sodipodi:nodetypes="cscc"
     inkscape:export-filename="D:\Estimado cliente\Desktop\mari3.png"
     inkscape:export-xdpi="23.106718"
     inkscape:export-ydpi="23.106718" />
  <path
     style="fill:#ffffff;fill-opacity:1;fill-rule:evenodd;stroke:#ffffff;stroke-width:0.79876077px;stroke-linecap:butt;stroke-linejoin:miter;stroke-opacity:1"
     d="m 468.65661,470.16384 c 3.5429,-0.42236 6.4848,3.94279 7.1566,4.63255 0.2707,0.27155 1.7819,1.36413 2.1147,0.21003 1.2567,-3.65761 0.8798,-5.49102 0.095,-9.40237"
     id="path4465-4-7-4-4-4-5-5-4"
     inkscape:connector-curvature="0"
     sodipodi:nodetypes="cscc"
     inkscape:export-filename="D:\Estimado cliente\Desktop\mari3.png"
     inkscape:export-xdpi="23.106718"
     inkscape:export-ydpi="23.106718" />
  <ellipse
     style="opacity:0.98999999;fill:#ffffff;fill-opacity:1;fill-rule:evenodd;stroke:none;stroke-width:1.07120132;stroke-linecap:butt;stroke-linejoin:round;stroke-miterlimit:4;stroke-dasharray:none;stroke-opacity:1"
     id="path4443-9-2-7-9-1-4"
     cx="-6.7382989"
     cy="643.85681"
     rx="7.3350186"
     ry="13.678621"
     transform="matrix(0.7060089,-0.70820296,0.7060089,0.70820296,0,0)"
     inkscape:export-filename="D:\Estimado cliente\Desktop\mari3.png"
     inkscape:export-xdpi="23.106718"
     inkscape:export-ydpi="23.106718" />
  <path
     inkscape:connector-curvature="0"
     style="opacity:0.98999999;fill:#000000;fill-opacity:1;fill-rule:evenodd;stroke:none;stroke-width:1.33899999;stroke-linecap:butt;stroke-linejoin:round;stroke-miterlimit:4;stroke-dasharray:none;stroke-opacity:1"
     d="m 445.06341,460.57142 c -1.1572,1.16645 -1.0743,3.95862 0.5881,6.34367 4.8793,4.37672 9.536,5.51731 12.3899,4.43839 0.2805,-2.11372 -1.2074,-5.18615 -3.7443,-7.73124 -3.39,-3.40019 -7.5239,-4.76604 -9.2337,-3.05082 z"
     id="path4445-5-9-5-9-7-4"
     sodipodi:nodetypes="ccccc"
     inkscape:export-filename="D:\Estimado cliente\Desktop\mari3.png"
     inkscape:export-xdpi="23.106718"
     inkscape:export-ydpi="23.106718" />
  <ellipse
     style="opacity:0.98999999;fill:#ffffff;fill-opacity:1;fill-rule:evenodd;stroke:none;stroke-width:1.07120132;stroke-linecap:butt;stroke-linejoin:round;stroke-miterlimit:4;stroke-dasharray:none;stroke-opacity:1"
     id="path4443-8-5-8-9-8-5-8"
     cx="30.889271"
     cy="643.85681"
     rx="7.3350186"
     ry="13.678621"
     transform="matrix(-0.7060089,0.70820296,0.7060089,0.70820296,0,0)"
     inkscape:export-filename="D:\Estimado cliente\Desktop\mari3.png"
     inkscape:export-xdpi="23.106718"
     inkscape:export-ydpi="23.106718" />
  <path
     style="fill:#000000;fill-opacity:1;fill-rule:evenodd;stroke:#000000;stroke-width:1.99690175;stroke-linecap:butt;stroke-linejoin:round;stroke-miterlimit:4;stroke-dasharray:none;stroke-opacity:1"
     d="m 411.83111,479.5101 c -3.3426,-12.93232 6.5802,-21.79303 30.1307,-9.52679 -12.2282,-23.62369 -3.395,-33.57739 9.4972,-30.22428 -19.951,14.21631 -6.3993,17.15717 -8.3577,31.3673 -14.1661,1.96452 -17.0979,-11.62932 -31.2702,8.38377 z"
     id="path4441-4-4-2-7-9-5-2"
     inkscape:connector-curvature="0"
     sodipodi:nodetypes="ccccc"
     inkscape:export-filename="D:\Estimado cliente\Desktop\mari3.png"
     inkscape:export-xdpi="23.106718"
     inkscape:export-ydpi="23.106718" />
  <path
     style="fill:#000000;fill-opacity:1;fill-rule:evenodd;stroke:#000000;stroke-width:0.79876077;stroke-linecap:round;stroke-linejoin:round;stroke-miterlimit:4;stroke-dasharray:none;stroke-opacity:1"
     d="m 436.39101,509.13384 c 1.3128,-11.85591 3.7464,-14.00152 17.1941,-27.49109 13.4478,-13.48956 15.5867,-15.93066 27.4059,-17.24747 -11.0827,4.22242 -14.8946,8.53862 -25.4912,19.16815 -10.5965,10.62952 -14.8994,14.45322 -19.1088,25.57041 z"
     id="path4463-8-5-9-9-5-8-6"
     inkscape:connector-curvature="0"
     sodipodi:nodetypes="czczc"
     inkscape:export-filename="D:\Estimado cliente\Desktop\mari3.png"
     inkscape:export-xdpi="23.106718"
     inkscape:export-ydpi="23.106718" />
  <path
     inkscape:connector-curvature="0"
     style="opacity:0.98999999;fill:#000000;fill-opacity:1;fill-rule:evenodd;stroke:none;stroke-width:1.33899999;stroke-linecap:butt;stroke-linejoin:round;stroke-miterlimit:4;stroke-dasharray:none;stroke-opacity:1"
     d="m 432.57911,473.09457 c 1.1628,-1.16077 3.9463,-1.07769 6.324,0.58993 4.3632,4.89447 5.5002,9.56565 4.4247,12.42835 -2.1073,0.28144 -5.1702,-1.21116 -7.7073,-3.75593 -3.3896,-3.40056 -4.7513,-7.54734 -3.0414,-9.26235 z"
     id="path4445-5-2-7-8-2-3-4"
     sodipodi:nodetypes="ccccc"
     inkscape:export-filename="D:\Estimado cliente\Desktop\mari3.png"
     inkscape:export-xdpi="23.106718"
     inkscape:export-ydpi="23.106718" />
  <path
     style="color:#000000;font-style:normal;font-variant:normal;font-weight:normal;font-stretch:normal;font-size:medium;line-height:normal;font-family:sans-serif;text-indent:0;text-align:start;text-decoration:none;text-decoration-line:none;text-decoration-style:solid;text-decoration-color:#000000;letter-spacing:normal;word-spacing:normal;text-transform:none;direction:ltr;block-progression:tb;writing-mode:lr-tb;baseline-shift:baseline;text-anchor:start;white-space:normal;clip-rule:nonzero;display:inline;overflow:visible;visibility:visible;opacity:1;isolation:auto;mix-blend-mode:normal;color-interpolation:sRGB;color-interpolation-filters:linearRGB;solid-color:#000000;solid-opacity:1;fill:#000000;fill-opacity:1;fill-rule:evenodd;stroke:none;stroke-width:9.60001183;stroke-linecap:butt;stroke-linejoin:miter;stroke-miterlimit:4;stroke-dasharray:none;stroke-dashoffset:0;stroke-opacity:1;color-rendering:auto;image-rendering:auto;shape-rendering:auto;text-rendering:auto;enable-background:accumulate"
     d="m 474.78591,332.03668 c 65.0717,46.51459 -3.3022,293.41363 -90.0881,186.82658 3.1049,12.57036 7.5604,23.03716 12.8437,30.68517 l 0,0.004 0,0.004 c 1.4715,2.1206 3.03,4.67713 5.3058,6.90624 2.2278,2.644 4.531,4.45134 6.4838,6.14846 l 0,0.002 c 16.5249,14.35036 40.3229,16.26538 62.1778,1.89843 10.8469,-7.1305 21.3033,-18.07373 30.6853,-33.27204 32.9836,20.0591 84.9368,-8.35579 69.204,-50.21918 -5.463,-14.53641 -29.4646,-8.6785 -32.1285,6.32845 -4.9326,27.78717 -19.0526,27.37913 -25.6033,21.84457 4.8649,-11.06606 9.2629,-23.64872 13.0577,-37.83611 l -0.1013,0.32812 c 5.3994,-15.63203 9.0446,-48.27736 3.5865,-78.7168 -2.4583,-13.71 -6.8042,-26.94283 -14.118,-37.69368 11.6545,-18.41266 15.5378,-35.23235 7.8903,-33.49431 -8.2126,1.8665 -19.0592,10.05462 -28.7683,13.7533 -4.766,-1.68014 -14.7527,-3.25538 -20.4119,-3.495 l -0.012,-0.002 -0.012,0 z"
     id="path4348-8-6-1-7"
     inkscape:connector-curvature="0"
     sodipodi:nodetypes="ccccccccscsscccscsccccc"
     inkscape:export-filename="D:\Estimado cliente\Desktop\mari3.png"
     inkscape:export-xdpi="23.106718"
     inkscape:export-ydpi="23.106718" />
  <path
     inkscape:connector-curvature="0"
     style="fill:none;fill-opacity:1;fill-rule:evenodd;stroke:#000000;stroke-width:9.60001183;stroke-linecap:butt;stroke-linejoin:round;stroke-miterlimit:4;stroke-dasharray:none;stroke-opacity:1"
     d="m 294.85096,387.14525 -51.81872,0.0406 0,123.96583 28.93979,0 0.0981,-39.98913 25.23567,46.09536 34.36667,-21.07813 -29.65475,-30.92663 20.42405,-7.87969 -0.67446,-45.11415 -26.91639,-25.11408 z m -23.46773,25.1172 27.19366,8.91097 -0.41591,15.04379 -21.2465,19.64064 -5.83188,0.13907 0.30063,-43.73447 z"
     id="path4156-8-7-1-6-0"
     inkscape:export-filename="D:\Estimado cliente\Desktop\mari3.png"
     inkscape:export-xdpi="23.106718"
     inkscape:export-ydpi="23.106718" />
  <path
     inkscape:connector-curvature="0"
     style="fill:#64b0ff;fill-opacity:1;fill-rule:evenodd;stroke:none;stroke-width:0.80000097px;stroke-linecap:butt;stroke-linejoin:miter;stroke-opacity:1"
     d="m 294.85095,387.14525 -51.81872,0.0406 0,123.9658 28.93978,0 0.0981,-39.9891 25.23567,46.09536 34.36669,-21.07815 -29.65476,-30.92661 20.42404,-7.8797 -0.67446,-45.11414 -26.91638,-25.11408 z m -23.46772,25.1172 27.19364,8.91097 -0.41589,15.04378 -21.24651,19.64065 -5.83187,0.13907 0.30063,-43.73447 z"
     id="path4156-3-5-2-4"
     inkscape:export-filename="D:\Estimado cliente\Desktop\mari3.png"
     inkscape:export-xdpi="23.106718"
     inkscape:export-ydpi="23.106718" />
  <path
     inkscape:connector-curvature="0"
     style="fill:none;fill-opacity:1;fill-rule:evenodd;stroke:#000000;stroke-width:9.60001183;stroke-linecap:butt;stroke-linejoin:round;stroke-miterlimit:4;stroke-dasharray:none;stroke-opacity:1"
     d="m 175.54502,380.36087 -57.73159,104.3939 23.56583,23.83597 14.53144,-26.39692 43.00701,9.25785 9.2307,27.77659 36.13464,-7.28906 -29.65476,-120.558 -39.08327,-11.02033 z m 3.73526,44.11411 7.2665,0.59062 8.64034,41.17196 -28.27935,-11.42501 12.37251,-30.33757 z"
     id="path4154-5-6-6-1-0"
     inkscape:export-filename="D:\Estimado cliente\Desktop\mari3.png"
     inkscape:export-xdpi="23.106718"
     inkscape:export-ydpi="23.106718" />
  <path
     inkscape:connector-curvature="0"
     style="fill:#64b0ff;fill-opacity:1;fill-rule:evenodd;stroke:none;stroke-width:0.80000097px;stroke-linecap:butt;stroke-linejoin:miter;stroke-opacity:1"
     d="m 175.54501,380.36087 -57.73162,104.3939 23.56585,23.83597 14.53145,-26.39692 43.00702,9.25783 9.2307,27.7766 36.13461,-7.28907 -29.65474,-120.55798 -39.08327,-11.02033 z m 3.73525,44.11411 7.26651,0.59062 8.64034,41.17196 -28.27934,-11.42503 12.37249,-30.33755 z"
     id="path4154-1-5-7-1"
     inkscape:export-filename="D:\Estimado cliente\Desktop\mari3.png"
     inkscape:export-xdpi="23.106718"
     inkscape:export-ydpi="23.106718" />
  <path
     style="fill:none;fill-opacity:1;fill-rule:evenodd;stroke:#000000;stroke-width:9.60001183;stroke-linecap:butt;stroke-linejoin:round;stroke-miterlimit:4;stroke-dasharray:none;stroke-opacity:1"
     d="m 35.759026,519.98241 40.02812,-4.69399 0,-85.29745 17.67432,36.64047 8.051634,-0.39396 18.26349,-35.65552 14.53224,83.13053 33.38482,-10.44057 -30.05837,-117.06112 -24.30096,-10.30778 -14.302864,35.3807 -17.77442,-34.68422 -26.52275,0.55717 z"
     id="path4148-1-1-7-3-5"
     inkscape:connector-curvature="0"
     sodipodi:nodetypes="cccccccccccccc"
     inkscape:export-filename="D:\Estimado cliente\Desktop\mari3.png"
     inkscape:export-xdpi="23.106718"
     inkscape:export-ydpi="23.106718" />
  <path
     style="fill:#64b0ff;fill-opacity:1;fill-rule:evenodd;stroke:none;stroke-width:0.80000097px;stroke-linecap:butt;stroke-linejoin:miter;stroke-opacity:1"
     d="m 35.759036,519.98241 40.02812,-4.69399 0,-85.29745 17.67431,36.64047 8.051634,-0.39396 18.26349,-35.65552 14.53224,83.13051 33.38482,-10.44056 -30.05837,-117.06111 -24.30096,-10.30778 -14.302864,35.3807 -17.77442,-34.68422 -26.52275,0.55717 z"
     id="path4148-0-1-6-7"
     inkscape:connector-curvature="0"
     sodipodi:nodetypes="cccccccccccccc"
     inkscape:export-filename="D:\Estimado cliente\Desktop\mari3.png"
     inkscape:export-xdpi="23.106718"
     inkscape:export-ydpi="23.106718" />
  <path
     style="fill:none;fill-opacity:1;fill-rule:evenodd;stroke:#000000;stroke-width:9.60001183;stroke-linecap:butt;stroke-linejoin:round;stroke-miterlimit:4;stroke-dasharray:none;stroke-opacity:1"
     d="m 330.29746,388.13026 24.54765,-0.68949 10.5248,120.37384 -34.85447,4.87531 z"
     id="path4160-1-6-8-1-0"
     inkscape:connector-curvature="0"
     inkscape:export-filename="D:\Estimado cliente\Desktop\mari3.png"
     inkscape:export-xdpi="23.106718"
     inkscape:export-ydpi="23.106718" />
  <path
     style="fill:#64b0ff;fill-opacity:1;fill-rule:evenodd;stroke:none;stroke-width:0.80000097px;stroke-linecap:butt;stroke-linejoin:miter;stroke-opacity:1"
     d="m 330.29746,388.13026 24.54765,-0.68949 10.5248,120.37384 -34.85447,4.87529 z"
     id="path4160-6-3-5-5"
     inkscape:connector-curvature="0"
     inkscape:export-filename="D:\Estimado cliente\Desktop\mari3.png"
     inkscape:export-xdpi="23.106718"
     inkscape:export-ydpi="23.106718" />
  <path
     style="fill:#000000;fill-opacity:1;fill-rule:evenodd;stroke:none;stroke-width:0.80000097px;stroke-linecap:butt;stroke-linejoin:miter;stroke-opacity:1"
     d="m 530.03831,356.30656 17.8389,-2.57514 c 8.9597,-27.6405 40.8277,-7.20741 15.9442,8.69114 -25.8217,16.49796 -25.2917,26.71317 -25.0757,36.29279 0.095,4.20179 1.0644,7.87701 3.7709,10.50688 l 64.4807,-11.06931 c -0.9075,-6.00208 -2.7531,-14.40394 -5.2636,-20.98101 -10.1467,-0.38462 -23.9036,4.66064 -34.767,6.99285 4.5778,-9.85544 10.7047,-7.47065 17.6122,-12.08534 30.6606,-20.48322 4.4569,-62.03377 -32.3603,-49.57683 -24.4524,8.27334 -22.1532,26.60375 -22.1803,33.80397 z"
     id="path4350-4-6-1-7"
     inkscape:connector-curvature="0"
     sodipodi:nodetypes="ccssccccssc"
     inkscape:export-filename="D:\Estimado cliente\Desktop\mari3.png"
     inkscape:export-xdpi="23.106718"
     inkscape:export-ydpi="23.106718" />
  <path
     inkscape:connector-curvature="0"
     id="30c2fb-2-3-2-3-7"
     d="m 455.15241,318.172 c -30.545,-1.14 -56.5642,37.23001 -69.8828,64.75001 2.6418,-13.26 18.8714,-41.59001 19.3598,-42.41001 0.1296,-1.93 -1.3757,-2.2 -2.542,-1.31 -50.5131,75.41001 -40.564,159.28004 -20.0677,188.95004 1.5751,2.27002 3.1303,4.71001 4.8051,6.32001 1.9041,2.33 4.0275,3.96999 6.1907,5.85 30.0666,26.11 83.8495,7.54999 109.6393,-88.87001 9.8095,-28.40003 15.0831,-130.63004 -47.5024,-133.28004 z m -1.1364,18.17 c -40.8431,0.63 -66.2342,77.12001 -68.238,104.51 -8.5534,84.94004 27.8933,111.44006 60.821,92.26005 -43.9833,9.34 -50.6426,-40.58001 -53.095,-52.50002 0.02,-1.60999 1.0866,-1.49999 1.5053,-0.57001 15.133,62.42003 64.1607,54.08003 89.1729,-16.08998 16.2097,-44.68003 9.9292,-96.18003 1.8842,-107.29003 8.2942,39.13 -3.0206,68.1 -4.526,72.45 -0.7476,1.23001 -1.8841,0.52 -1.7445,-0.76001 7.387,-23.32998 10.9858,-87.27 -25.7799,-92.01 z"
     style="fill:none;fill-opacity:1;fill-rule:evenodd;stroke:#000000;stroke-width:9.60001183;stroke-miterlimit:4;stroke-dasharray:none;stroke-opacity:1"
     inkscape:export-filename="D:\Estimado cliente\Desktop\mari3.png"
     inkscape:export-xdpi="23.106718"
     inkscape:export-ydpi="23.106718" />
  <path
     inkscape:connector-curvature="0"
     id="30c2fb-3-5-4-4"
     d="m 455.15241,318.172 c -30.545,-1.14 -56.5642,37.23001 -69.8828,64.75001 2.6418,-13.26 18.8714,-41.59001 19.3598,-42.41001 0.1296,-1.93 -1.3757,-2.2 -2.542,-1.31 -50.5131,75.41001 -40.564,159.28002 -20.0677,188.95004 1.5751,2.26999 3.1303,4.70999 4.8051,6.32 1.9041,2.32999 4.0275,3.97 6.1907,5.85 30.0666,26.11 83.8495,7.55 109.6393,-88.87003 9.8095,-28.4 15.0831,-130.63001 -47.5024,-133.28001 z m -1.1364,18.17 c -40.8431,0.63 -66.2342,77.12 -68.238,104.51 -8.5534,84.94004 27.8933,111.44004 60.821,92.26003 -43.9833,9.34002 -50.6426,-40.57999 -53.095,-52.5 0.02,-1.61001 1.0866,-1.50001 1.5053,-0.57001 15.133,62.42003 64.1607,54.08002 89.1729,-16.08999 16.2097,-44.68004 9.9292,-96.18002 1.8842,-107.29002 8.2942,39.13 -3.0207,68.09998 -4.526,72.45 -0.7476,1.22999 -1.8841,0.52 -1.7445,-0.76001 7.387,-23.32998 10.9858,-87.27 -25.7799,-92.01 z"
     style="fill:#fc9838;fill-opacity:1;fill-rule:evenodd;stroke:none;stroke-width:1;stroke-opacity:1"
     inkscape:export-filename="D:\Estimado cliente\Desktop\mari3.png"
     inkscape:export-xdpi="23.106718"
     inkscape:export-ydpi="23.106718" />
  <ellipse
     style="opacity:0.98999999;fill:#f7d8a5;fill-opacity:1;fill-rule:evenodd;stroke:none;stroke-width:0.80000097;stroke-linecap:round;stroke-linejoin:round;stroke-miterlimit:4;stroke-dasharray:none;stroke-opacity:1"
     id="path4664-6-0-6-6"
     cx="481.59088"
     cy="140.89781"
     rx="58.914421"
     ry="105.76318"
     transform="matrix(1,0,-0.17082587,0.98530123,0,0)"
     inkscape:export-filename="D:\Estimado cliente\Desktop\mari3.png"
     inkscape:export-xdpi="23.106718"
     inkscape:export-ydpi="23.106718" />
  <path
     style="fill:none;fill-opacity:1;fill-rule:evenodd;stroke:#000000;stroke-width:9.60001183;stroke-linecap:butt;stroke-linejoin:miter;stroke-miterlimit:4;stroke-dasharray:none;stroke-opacity:1"
     d="m 477.95571,214.34422 c -2.5823,8.9409 -13.3862,18.89906 -22.9374,16.28648 -13.8216,-3.78073 -14.3366,-26.8978 -15.4338,-41.1851 -0.8117,-10.57022 -0.8709,-23.00448 7.186,-31.06143 8.057,-8.05695 20.4912,-7.99769 31.0614,-7.18601 14.2873,1.09714 37.4044,1.61215 41.1852,15.43378 2.6126,9.55122 -7.3456,20.35517 -16.2865,22.93746 -5.0304,1.45285 -7.0045,2.57045 -14.6044,10.17042 -7.6,7.59995 -8.7176,9.57408 -10.1705,14.6044 z"
     id="path4509-4-5-5-2"
     inkscape:connector-curvature="0"
     sodipodi:nodetypes="ssszssszs" />
  <path
     style="fill:#c84c0c;fill-opacity:1;fill-rule:evenodd;stroke:none;stroke-width:0.80000097px;stroke-linecap:butt;stroke-linejoin:miter;stroke-opacity:1"
     d="m 477.95571,214.34421 c -2.5823,8.9409 -13.3862,18.89907 -22.9374,16.28648 -13.8216,-3.78073 -14.3366,-26.8978 -15.4338,-41.1851 -0.8117,-10.57022 -0.8709,-23.00448 7.186,-31.06142 8.057,-8.05695 20.4912,-7.99769 31.0614,-7.18601 14.2873,1.09714 37.4044,1.61215 41.1851,15.43377 2.6126,9.55122 -7.3455,20.35517 -16.2864,22.93746 -5.0304,1.45285 -7.0045,2.57045 -14.6044,10.17042 -7.6,7.59995 -8.7176,9.57408 -10.1705,14.6044 z"
     id="path4509-4-5-9"
     inkscape:connector-curvature="0"
     sodipodi:nodetypes="ssszssszs" />
  <path
     style="opacity:0.98999999;fill:#fcbcb0;fill-opacity:1;fill-rule:evenodd;stroke:#fcbcaf;stroke-width:0.64000076;stroke-linecap:round;stroke-linejoin:round;stroke-miterlimit:4;stroke-dasharray:none;stroke-opacity:1"
     d="m 491.15531,168.69969 c 8.1166,8.11665 9.4835,11.10906 3.6239,16.9686 -4.4524,4.45243 -8.383,4.96168 -16.9686,-3.62397 1.6439,-5.16446 2.8298,-10.03063 2.5402,-20.13234 2.6022,0.12372 5.9503,1.93357 10.8045,6.78771 z"
     id="path4506-4-2"
     inkscape:connector-curvature="0"
     sodipodi:nodetypes="ssccs" />
  <path
     inkscape:connector-curvature="0"
     id="30c2fb-2-3-2-3-6-4"
     d="m 476.53401,21.854606 c -30.545,-1.14 -56.5642,37.230011 -69.8828,64.750023 2.6418,-13.260011 18.8714,-41.590022 19.3599,-42.410022 0.1296,-1.93 -1.3758,-2.2 -2.5421,-1.31 -50.5131,75.410013 -40.564,159.280053 -20.0677,188.950063 1.5751,2.27 3.1303,4.71001 4.8051,6.32001 1.904,2.32999 4.0275,3.96999 6.1907,5.85 30.0666,26.11 83.8495,7.54999 109.6393,-88.87002 9.8096,-28.40002 15.0832,-130.630054 -47.5024,-133.280054 z m -1.1364,18.170001 c -40.8431,0.63 -66.2342,77.120013 -68.238,104.510023 -8.5534,84.94004 27.8934,111.44005 60.821,92.26005 -43.9833,9.33998 -50.6426,-40.58001 -53.095,-52.50003 0.02,-1.60999 1.0866,-1.49999 1.5053,-0.57001 15.133,62.42002 64.1607,54.08004 89.1729,-16.08998 16.2097,-44.68003 9.9292,-96.180042 1.8842,-107.290042 8.2942,39.13001 -3.0206,68.100012 -4.526,72.450012 -0.7476,1.23001 -1.8841,0.52001 -1.7445,-0.76 7.387,-23.32999 10.9858,-87.270023 -25.7799,-92.010023 z"
     style="fill:none;fill-opacity:1;fill-rule:evenodd;stroke:#000000;stroke-width:9.60001183;stroke-miterlimit:4;stroke-dasharray:none;stroke-opacity:1"
     inkscape:export-filename="D:\Estimado cliente\Desktop\mari3.png"
     inkscape:export-xdpi="23.106718"
     inkscape:export-ydpi="23.106718" />
  <path
     inkscape:connector-curvature="0"
     id="30c2fb-3-5-4-8-8"
     d="m 476.53401,21.854606 c -30.545,-1.14 -56.5642,37.230011 -69.8828,64.750023 2.6418,-13.260011 18.8714,-41.590022 19.3599,-42.410022 0.1296,-1.93 -1.3758,-2.2 -2.5421,-1.31 -50.5131,75.410013 -40.564,159.280033 -20.0677,188.950043 1.5751,2.27001 3.1303,4.71001 4.8051,6.32 1.904,2.33001 4.0275,3.97002 6.1907,5.85 30.0666,26.11002 83.8495,7.55 109.6393,-88.87002 9.8096,-28.39999 15.0832,-130.630024 -47.5024,-133.280024 z m -1.1364,18.170001 c -40.8431,0.63 -66.2342,77.120013 -68.238,104.510023 -8.5534,84.94004 27.8934,111.44004 60.821,92.26003 -43.9833,9.34 -50.6426,-40.57999 -53.095,-52.50001 0.02,-1.61001 1.0866,-1.50001 1.5053,-0.57001 15.133,62.42002 64.1607,54.08001 89.1729,-16.08999 16.2097,-44.68004 9.9292,-96.180032 1.8842,-107.290032 8.2942,39.13001 -3.0207,68.099992 -4.526,72.450012 -0.7476,1.22999 -1.8841,0.52001 -1.7445,-0.76 7.387,-23.32999 10.9858,-87.270023 -25.7799,-92.010023 z"
     style="fill:#30c2fb;fill-opacity:1;fill-rule:evenodd;stroke:none;stroke-width:1;stroke-opacity:1"
     inkscape:export-filename="D:\Estimado cliente\Desktop\mari3.png"
     inkscape:export-xdpi="23.106718"
     inkscape:export-ydpi="23.106718" />
  <path
     style="fill:none;fill-rule:evenodd;stroke:#000000;stroke-width:6.00000763;stroke-linecap:round;stroke-linejoin:miter;stroke-miterlimit:4;stroke-dasharray:none;stroke-opacity:1"
     d="m 488.50481,179.49765 -6.1488,-6.14878"
     id="path4504-2-4"
     inkscape:connector-curvature="0"
     sodipodi:nodetypes="cc" />
  <path
     style="opacity:0.98999999;fill:#fcbcb0;fill-opacity:1;fill-rule:evenodd;stroke:#fcbcaf;stroke-width:0.64000076;stroke-linecap:round;stroke-linejoin:round;stroke-miterlimit:4;stroke-dasharray:none;stroke-opacity:1"
     d="m 457.08601,202.7689 c 8.1167,8.11668 11.1091,9.4835 16.9687,3.62394 4.4524,-4.45243 4.9616,-8.38295 -3.624,-16.96859 -5.1645,1.64391 -10.0306,2.82986 -20.1324,2.54023 0.1238,2.60216 1.9336,5.95031 6.7877,10.80442 z"
     id="path4506-9-2-2"
     inkscape:connector-curvature="0"
     sodipodi:nodetypes="ssccs" />
  <path
     style="fill:none;fill-rule:evenodd;stroke:#000000;stroke-width:6.00000763;stroke-linecap:round;stroke-linejoin:miter;stroke-miterlimit:4;stroke-dasharray:none;stroke-opacity:1"
     d="m 447.00291,195.32917 c 11.1353,-12.26741 10.2203,6.83358 26.8833,-9.82935 16.6629,-16.66295 -2.4381,-15.74807 9.8293,-26.88322"
     id="path4502-7-2-6"
     inkscape:connector-curvature="0"
     sodipodi:nodetypes="czc" />
  <path
     style="fill:none;fill-rule:evenodd;stroke:#000000;stroke-width:6.00000763;stroke-linecap:round;stroke-linejoin:miter;stroke-miterlimit:4;stroke-dasharray:none;stroke-opacity:1"
     d="m 467.88401,200.11843 -6.1488,-6.14878"
     id="path4504-9-7-5"
     inkscape:connector-curvature="0"
     sodipodi:nodetypes="cc" />
  <path
     inkscape:connector-curvature="0"
     style="fill:none;fill-opacity:1;fill-rule:evenodd;stroke:#000000;stroke-width:9.60001183;stroke-linecap:butt;stroke-linejoin:round;stroke-miterlimit:4;stroke-dasharray:none;stroke-opacity:1"
     d="m 316.23261,90.827867 -51.8188,0.0406 0,123.965833 28.9398,0 0.098,-39.98913 25.2357,46.09536 34.3667,-21.07813 -29.6548,-30.92663 20.4241,-7.8797 -0.6745,-45.11414 -26.9164,-25.114083 z m -23.4678,25.117203 27.1937,8.91097 -0.4159,15.04378 -21.2465,19.64064 -5.8319,0.13908 0.3006,-43.73447 z"
     id="path4156-8-7-1-6-0-3"
     inkscape:export-filename="D:\Estimado cliente\Desktop\mari3.png"
     inkscape:export-xdpi="23.106718"
     inkscape:export-ydpi="23.106718" />
  <path
     inkscape:connector-curvature="0"
     style="fill:#ffffff;fill-opacity:1;fill-rule:evenodd;stroke:none;stroke-width:0.80000097px;stroke-linecap:butt;stroke-linejoin:miter;stroke-opacity:1"
     d="m 316.23251,90.827867 -51.8187,0.0406 0,123.965803 28.9398,0 0.098,-39.9891 25.2357,46.09536 34.3667,-21.07815 -29.6548,-30.92661 20.4241,-7.8797 -0.6745,-45.11414 -26.9164,-25.114083 z m -23.4677,25.117203 27.1937,8.91097 -0.4159,15.04378 -21.2465,19.64064 -5.8319,0.13908 0.3006,-43.73447 z"
     id="path4156-3-5-2-4-7"
     inkscape:export-filename="D:\Estimado cliente\Desktop\mari3.png"
     inkscape:export-xdpi="23.106718"
     inkscape:export-ydpi="23.106718" />
  <path
     inkscape:connector-curvature="0"
     style="fill:none;fill-opacity:1;fill-rule:evenodd;stroke:#000000;stroke-width:9.60001183;stroke-linecap:butt;stroke-linejoin:round;stroke-miterlimit:4;stroke-dasharray:none;stroke-opacity:1"
     d="m 196.92661,84.043487 -57.73157,104.393903 23.56584,23.83597 14.53144,-26.39692 43.00699,9.25785 9.2307,27.77659 36.1346,-7.28906 -29.6547,-120.558003 -39.0833,-11.02033 z m 3.7353,44.114103 7.2665,0.59063 8.6403,41.17196 -28.2793,-11.42501 12.3725,-30.33758 z"
     id="path4154-5-6-6-1-0-1"
     inkscape:export-filename="D:\Estimado cliente\Desktop\mari3.png"
     inkscape:export-xdpi="23.106718"
     inkscape:export-ydpi="23.106718" />
  <path
     inkscape:connector-curvature="0"
     style="fill:#ffffff;fill-opacity:1;fill-rule:evenodd;stroke:none;stroke-width:0.80000097px;stroke-linecap:butt;stroke-linejoin:miter;stroke-opacity:1"
     d="M 196.92661,84.043487 139.195,188.43739 l 23.56586,23.83597 14.53144,-26.39692 43.00701,9.25783 9.2307,27.7766 36.1346,-7.28907 -29.6547,-120.557983 -39.0833,-11.02033 z m 3.7353,44.114103 7.2665,0.59063 8.6403,41.17196 -28.2793,-11.42503 12.3725,-30.33756 z"
     id="path4154-1-5-7-1-5"
     inkscape:export-filename="D:\Estimado cliente\Desktop\mari3.png"
     inkscape:export-xdpi="23.106718"
     inkscape:export-ydpi="23.106718" />
  <path
     style="fill:none;fill-opacity:1;fill-rule:evenodd;stroke:#000000;stroke-width:9.60001183;stroke-linecap:butt;stroke-linejoin:round;stroke-miterlimit:4;stroke-dasharray:none;stroke-opacity:1"
     d="m 57.140646,223.66503 40.02812,-4.69399 0,-85.29746 17.674324,36.64048 8.05164,-0.39396 18.26348,-35.65552 14.53224,83.13053 33.38476,-10.44057 -30.05832,-117.061123 -24.30096,-10.30778 -14.30285,35.380703 -17.77443,-34.684223 -26.522744,0.55717 z"
     id="path4148-1-1-7-3-5-9"
     inkscape:connector-curvature="0"
     sodipodi:nodetypes="cccccccccccccc"
     inkscape:export-filename="D:\Estimado cliente\Desktop\mari3.png"
     inkscape:export-xdpi="23.106718"
     inkscape:export-ydpi="23.106718" />
  <path
     style="fill:#ffffff;fill-opacity:1;fill-rule:evenodd;stroke:none;stroke-width:0.80000097px;stroke-linecap:butt;stroke-linejoin:miter;stroke-opacity:1"
     d="m 57.140656,223.66503 40.02812,-4.69399 0,-85.29746 17.674314,36.64048 8.05164,-0.39396 18.26348,-35.65552 14.53224,83.13051 33.38476,-10.44056 -30.05832,-117.061113 -24.30096,-10.30778 -14.30285,35.380703 -17.77443,-34.684223 -26.522744,0.55717 z"
     id="path4148-0-1-6-7-1"
     inkscape:connector-curvature="0"
     sodipodi:nodetypes="cccccccccccccc"
     inkscape:export-filename="D:\Estimado cliente\Desktop\mari3.png"
     inkscape:export-xdpi="23.106718"
     inkscape:export-ydpi="23.106718" />
  <path
     style="fill:none;fill-opacity:1;fill-rule:evenodd;stroke:#000000;stroke-width:9.60001183;stroke-linecap:butt;stroke-linejoin:round;stroke-miterlimit:4;stroke-dasharray:none;stroke-opacity:1"
     d="m 351.67911,91.812877 24.5476,-0.68949 10.5248,120.373843 -34.8545,4.87531 z"
     id="path4160-1-6-8-1-0-9"
     inkscape:connector-curvature="0"
     inkscape:export-filename="D:\Estimado cliente\Desktop\mari3.png"
     inkscape:export-xdpi="23.106718"
     inkscape:export-ydpi="23.106718" />
  <path
     style="fill:#ffffff;fill-opacity:1;fill-rule:evenodd;stroke:none;stroke-width:0.80000097px;stroke-linecap:butt;stroke-linejoin:miter;stroke-opacity:1"
     d="m 351.67911,91.812877 24.5476,-0.68949 10.5248,120.373843 -34.8545,4.87529 z"
     id="path4160-6-3-5-5-3"
     inkscape:connector-curvature="0"
     inkscape:export-filename="D:\Estimado cliente\Desktop\mari3.png"
     inkscape:export-xdpi="23.106718"
     inkscape:export-ydpi="23.106718" />
</svg>
